<svg width="512" height="512" viewBox="0 0 512 512" fill="none" xmlns="http://www.w3.org/2000/svg">
<g clip-path="url(#clip0_2671_4612)">
<rect width="512" height="512" rx="32" fill="#010104"/>
<path fill-rule="evenodd" clip-rule="evenodd" d="M226.731 157.42C226.731 155.395 228.373 153.753 230.399 153.753H245.808C247.835 153.753 249.477 155.395 249.477 157.42V190.425H260.484V157.42C260.484 155.395 262.126 153.753 264.152 153.753H279.561C281.588 153.753 283.23 155.395 283.23 157.42L283.23 190.425H316.25C318.276 190.425 319.918 192.041 319.918 194.034V209.192C319.918 211.186 318.276 212.801 316.25 212.801L283.23 212.801L283.23 352.518C283.23 354.543 281.588 356.185 279.561 356.185H264.152C262.126 356.185 260.484 354.543 260.484 352.518V212.947L249.477 213.017V352.518C249.477 354.543 247.835 356.185 245.808 356.185H230.399C228.373 356.185 226.731 354.543 226.731 352.518V213.162H226.731L193.711 212.801C191.685 212.801 190.042 211.186 190.042 209.192V194.034C190.042 192.041 191.685 190.425 193.711 190.425H226.731H226.731V157.42Z" fill="url(#paint0_linear_2671_4612)"/>
<path fill-rule="evenodd" clip-rule="evenodd" d="M226.731 157.42C226.731 155.395 228.373 153.753 230.399 153.753H245.808C247.835 153.753 249.477 155.395 249.477 157.42V190.425H260.484V157.42C260.484 155.395 262.126 153.753 264.152 153.753H279.561C281.588 153.753 283.23 155.395 283.23 157.42L283.23 190.425H316.25C318.276 190.425 319.918 192.041 319.918 194.034V209.192C319.918 211.186 318.276 212.801 316.25 212.801L283.23 212.801L283.23 352.518C283.23 354.543 281.588 356.185 279.561 356.185H264.152C262.126 356.185 260.484 354.543 260.484 352.518V212.947L249.477 213.017V352.518C249.477 354.543 247.835 356.185 245.808 356.185H230.399C228.373 356.185 226.731 354.543 226.731 352.518V213.162H226.731L193.711 212.801C191.685 212.801 190.042 211.186 190.042 209.192V194.034C190.042 192.041 191.685 190.425 193.711 190.425H226.731H226.731V157.42Z" fill="black" fill-opacity="0.1"/>
</g>
<defs>
<linearGradient id="paint0_linear_2671_4612" x1="196.277" y1="180.272" x2="353.434" y2="250.274" gradientUnits="userSpaceOnUse">
<stop offset="0.078125" stop-color="#43A3F8" stop-opacity="0.9"/>
<stop offset="1" stop-color="#76C2F5" stop-opacity="0.95"/>
</linearGradient>
<clipPath id="clip0_2671_4612">
<rect width="512" height="512" fill="white"/>
</clipPath>
</defs>
</svg>
