<svg width="212" height="44" viewBox="0 0 212 44" fill="none" xmlns="http://www.w3.org/2000/svg">
<g filter="url(#filter0_d)">
<path d="M5.11069 35C4.82269 35 4.56669 34.904 4.34269 34.712C4.15069 34.488 4.05469 34.232 4.05469 33.944C4.05469 33.816 4.07069 33.704 4.10269 33.608L14.8067 2.984C14.9347 2.568 15.1747 2.2 15.5267 1.88C15.8787 1.56 16.3587 1.4 16.9667 1.4H27.3827C27.9907 1.4 28.4707 1.56 28.8227 1.88C29.1747 2.2 29.4147 2.568 29.5427 2.984L40.2467 33.608C40.2787 33.704 40.2947 33.816 40.2947 33.944C40.2947 34.232 40.1827 34.488 39.9587 34.712C39.7667 34.904 39.5267 35 39.2387 35H30.3587C29.3987 35 28.7747 34.6 28.4867 33.8L27.3347 30.632H17.0147L15.8627 33.8C15.5747 34.6 14.9507 35 13.9907 35H5.11069ZM24.8867 21.272L22.1507 12.344L19.4627 21.272H24.8867ZM44.2251 35C43.8731 35 43.5691 34.872 43.3131 34.616C43.0571 34.36 42.9291 34.056 42.9291 33.704V2.696C42.9291 2.344 43.0571 2.04 43.3131 1.784C43.5691 1.528 43.8731 1.4 44.2251 1.4H58.7691C63.2491 1.4 66.7691 2.392 69.3291 4.376C71.9211 6.36 73.2171 9.288 73.2171 13.16C73.2171 17 71.9371 19.864 69.3771 21.752C66.8171 23.608 63.2811 24.536 58.7691 24.536H55.4091V33.704C55.4091 34.056 55.2811 34.36 55.0251 34.616C54.7691 34.872 54.4651 35 54.1131 35H44.2251ZM58.5291 15.656C59.1051 15.656 59.6171 15.448 60.0651 15.032C60.5131 14.584 60.7371 13.928 60.7371 13.064C60.7371 12.328 60.5611 11.688 60.2091 11.144C59.8571 10.6 59.2971 10.328 58.5291 10.328H55.1691V15.656H58.5291ZM78.0688 35C77.7168 35 77.4128 34.872 77.1568 34.616C76.9008 34.36 76.7728 34.056 76.7728 33.704V2.696C76.7728 2.344 76.9008 2.04 77.1568 1.784C77.4128 1.528 77.7168 1.4 78.0688 1.4H92.6128C97.0928 1.4 100.613 2.392 103.173 4.376C105.765 6.36 107.061 9.288 107.061 13.16C107.061 17 105.781 19.864 103.221 21.752C100.661 23.608 97.1248 24.536 92.6128 24.536H89.2528V33.704C89.2528 34.056 89.1248 34.36 88.8688 34.616C88.6128 34.872 88.3088 35 87.9568 35H78.0688ZM92.3728 15.656C92.9488 15.656 93.4608 15.448 93.9088 15.032C94.3568 14.584 94.5808 13.928 94.5808 13.064C94.5808 12.328 94.4048 11.688 94.0528 11.144C93.7008 10.6 93.1408 10.328 92.3728 10.328H89.0128V15.656H92.3728ZM106.408 35C106.12 35 105.864 34.904 105.64 34.712C105.448 34.488 105.352 34.232 105.352 33.944C105.352 33.816 105.368 33.704 105.4 33.608L116.104 2.984C116.232 2.568 116.472 2.2 116.824 1.88C117.176 1.56 117.656 1.4 118.264 1.4H128.68C129.288 1.4 129.768 1.56 130.12 1.88C130.472 2.2 130.712 2.568 130.84 2.984L141.544 33.608C141.576 33.704 141.592 33.816 141.592 33.944C141.592 34.232 141.48 34.488 141.256 34.712C141.064 34.904 140.824 35 140.536 35H131.656C130.696 35 130.072 34.6 129.784 33.8L128.632 30.632H118.312L117.16 33.8C116.872 34.6 116.248 35 115.288 35H106.408ZM126.184 21.272L123.448 12.344L120.76 21.272H126.184ZM158.741 35.48C153.781 35.48 149.893 34.376 147.077 32.168C144.261 29.96 142.757 26.664 142.565 22.28C142.533 21.416 142.517 19.992 142.517 18.008C142.517 15.992 142.533 14.536 142.565 13.64C142.725 9.48 144.245 6.328 147.125 4.184C150.005 2.008 153.877 0.919998 158.741 0.919998C162.005 0.919998 164.885 1.4 167.381 2.36C169.877 3.32 171.797 4.616 173.141 6.248C174.485 7.88 175.189 9.672 175.253 11.624C175.253 11.912 175.141 12.168 174.917 12.392C174.725 12.584 174.485 12.68 174.197 12.68H163.589C162.949 12.68 162.485 12.504 162.197 12.152C162.165 12.088 162.021 11.896 161.765 11.576C161.509 11.224 161.109 10.92 160.565 10.664C160.053 10.408 159.445 10.28 158.741 10.28C156.373 10.28 155.141 11.48 155.045 13.88C155.013 14.744 154.997 16.088 154.997 17.912C154.997 19.736 155.013 21.112 155.045 22.04C155.141 24.76 156.437 26.12 158.933 26.12C160.213 26.12 161.205 25.848 161.909 25.304C162.645 24.76 163.013 23.896 163.013 22.712V22.664H160.757C160.405 22.664 160.101 22.536 159.845 22.28C159.589 22.024 159.461 21.72 159.461 21.368V16.04C159.461 15.688 159.589 15.384 159.845 15.128C160.101 14.872 160.405 14.744 160.757 14.744H173.957C174.309 14.744 174.613 14.872 174.869 15.128C175.125 15.384 175.253 15.688 175.253 16.04V22.28C175.253 25.096 174.549 27.496 173.141 29.48C171.765 31.464 169.829 32.968 167.333 33.992C164.869 34.984 162.005 35.48 158.741 35.48ZM180.866 35C180.514 35 180.21 34.872 179.954 34.616C179.698 34.36 179.57 34.056 179.57 33.704V2.696C179.57 2.344 179.698 2.04 179.954 1.784C180.21 1.528 180.514 1.4 180.866 1.4H205.49C205.842 1.4 206.146 1.528 206.402 1.784C206.658 2.04 206.786 2.344 206.786 2.696V9.464C206.786 9.816 206.658 10.12 206.402 10.376C206.146 10.632 205.842 10.76 205.49 10.76H191.09V13.784H204.434C204.786 13.784 205.09 13.912 205.346 14.168C205.602 14.424 205.73 14.728 205.73 15.08V21.32C205.73 21.672 205.602 21.976 205.346 22.232C205.09 22.488 204.786 22.616 204.434 22.616H191.09V25.64H205.874C206.226 25.64 206.53 25.768 206.786 26.024C207.042 26.28 207.17 26.584 207.17 26.936V33.704C207.17 34.056 207.042 34.36 206.786 34.616C206.53 34.872 206.226 35 205.874 35H180.866Z" fill="white"/>
</g>
<defs>
<filter id="filter0_d" x="0.0546875" y="0.919998" width="211.115" height="42.56" filterUnits="userSpaceOnUse" color-interpolation-filters="sRGB">
<feFlood flood-opacity="0" result="BackgroundImageFix"/>
<feColorMatrix in="SourceAlpha" type="matrix" values="0 0 0 0 0 0 0 0 0 0 0 0 0 0 0 0 0 0 127 0"/>
<feOffset dy="4"/>
<feGaussianBlur stdDeviation="2"/>
<feColorMatrix type="matrix" values="0 0 0 0 0 0 0 0 0 0 0 0 0 0 0 0 0 0 0.25 0"/>
<feBlend mode="normal" in2="BackgroundImageFix" result="effect1_dropShadow"/>
<feBlend mode="normal" in="SourceGraphic" in2="effect1_dropShadow" result="shape"/>
</filter>
</defs>
</svg>
