<svg width="104" height="18" viewBox="0 0 104 18" fill="none" xmlns="http://www.w3.org/2000/svg">
<path d="M0.351562 3.82812V0.59375H10.5V3.82812H7.07812V17H3.77344V3.82812H0.351562ZM11.7422 13.3672V7.25C11.7422 6.48438 12.0781 5.73438 12.75 5C13.5938 4.10938 14.6641 3.65625 15.9609 3.64062V6.6875C15.2578 6.75 14.8828 7.04688 14.8359 7.57812V13.0391C14.8672 13.6484 15.2422 13.9609 15.9609 13.9766V17.0234C14.4297 17.0234 13.2422 16.4062 12.3984 15.1719C11.9609 14.5312 11.7422 13.9297 11.7422 13.3672ZM17.0391 17.0234V13.9766C17.6953 13.8984 18.0547 13.6016 18.1172 13.0859L18.0938 7.57812C17.9844 7.01562 17.625 6.71875 17.0156 6.6875V3.64062C18.4844 3.64062 19.6328 4.23438 20.4609 5.42188C20.8984 6.0625 21.1172 6.67188 21.1172 7.25V13.3672C21.1172 14.1484 20.7812 14.9141 20.1094 15.6641C19.2969 16.5547 18.2734 17.0078 17.0391 17.0234ZM22.9922 17V0.21875H26.2266V17H22.9922ZM26.9062 10.2734L29.7891 3.64062H33.2109L30.2578 10.2734L33.2578 17H29.8594L26.9062 10.2734ZM34.6172 13.3672V7.22656C34.6328 6.46094 34.9844 5.71094 35.6719 4.97656C36.5156 4.10156 37.5469 3.65625 38.7656 3.64062V6.59375C38.3125 6.59375 38 6.78906 37.8281 7.17969C37.7812 7.27344 37.7578 7.35938 37.7578 7.4375V8.60938H41.25V7.46094C41.2344 6.88281 40.8281 6.59375 40.0312 6.59375V3.64062C41.1719 3.64062 42.1719 4.03125 43.0312 4.8125C43.7812 5.5 44.1641 6.29688 44.1797 7.20312V11.6328H37.7578V13.3672C37.8672 13.8203 38.2109 14.0703 38.7891 14.1172V17C37.3203 17 36.1562 16.3984 35.2969 15.1953C34.8438 14.5547 34.6172 13.9453 34.6172 13.3672ZM40.0312 17V14.1406C40.875 14.125 41.4141 13.7266 41.6484 12.9453L44.2031 13.9062C43.9688 14.9062 43.375 15.7109 42.4219 16.3203C41.6875 16.7734 40.8906 17 40.0312 17ZM45.9844 17V7.27344C45.9844 6.49219 46.3359 5.72656 47.0391 4.97656C47.8984 4.08594 48.9688 3.63281 50.25 3.61719V6.73438C49.5938 6.8125 49.2344 7.11719 49.1719 7.64844V17H45.9844ZM51.3281 6.73438V3.61719C52.8438 3.61719 54.0391 4.21875 54.9141 5.42188C55.3828 6.07812 55.6172 6.69531 55.6172 7.27344V17H52.4297V7.64844C52.4297 7.13281 52.1406 6.83594 51.5625 6.75781C51.4844 6.74219 51.4062 6.73438 51.3281 6.73438ZM63.0703 17V0.59375H66.375V7.13281H67.2891V10.3672H66.375V17H63.0703ZM68.5781 10.3672V7.13281H69.4922V0.59375H72.7969V17H69.4922V10.3672H68.5781ZM74.625 13.4609V3.64062H77.8125V13.0859C77.8438 13.6797 78.2031 13.9844 78.8906 14V17.1172C77.3594 17.1172 76.1641 16.5156 75.3047 15.3125C74.8516 14.6719 74.625 14.0547 74.625 13.4609ZM79.9688 17.1172V14C80.6406 13.9219 81.0078 13.6172 81.0703 13.0859V3.64062H84.2578V13.4609C84.2578 14.1953 83.9141 14.9375 83.2266 15.6875C82.3516 16.625 81.2656 17.1016 79.9688 17.1172ZM86.0391 17V7.27344C86.0391 6.49219 86.3906 5.72656 87.0938 4.97656C87.9531 4.08594 89.0234 3.63281 90.3047 3.61719V6.73438C89.6484 6.8125 89.2891 7.11719 89.2266 7.64844V17H86.0391ZM91.3828 6.73438V3.61719C92.8984 3.61719 94.0938 4.21875 94.9688 5.42188C95.4375 6.07812 95.6719 6.69531 95.6719 7.27344V17H92.4844V7.64844C92.4844 7.13281 92.1953 6.83594 91.6172 6.75781C91.5391 6.74219 91.4609 6.73438 91.3828 6.73438ZM96.8906 6.66406V3.64062H98.5312V0.21875H101.672V3.64062H103.219V6.6875H101.672V12.8984C101.703 13.4609 101.992 13.75 102.539 13.7656H103.219L103.922 17H102.516C100.469 17 99.2188 16.2266 98.7656 14.6797C98.6094 14.1172 98.5312 13.4453 98.5312 12.6641V6.66406H96.8906Z" fill="white"/>
</svg>
